<?xml version="1.0" encoding="UTF-8" standalone="no"?>
<svg
   xmlns:dc="http://purl.org/dc/elements/1.1/"
   xmlns:cc="http://creativecommons.org/ns#"
   xmlns:rdf="http://www.w3.org/1999/02/22-rdf-syntax-ns#"
   xmlns:svg="http://www.w3.org/2000/svg"
   xmlns="http://www.w3.org/2000/svg"
   xmlns:xlink="http://www.w3.org/1999/xlink"
   width="175.21307mm"
   height="135.42105mm"
   viewBox="0 0 175.21308 135.42105"
   version="1.1"
   id="svg8">
  <defs
     id="defs2">
    <marker
       style="overflow:visible"
       id="marker5051"
       refX="0"
       refY="0"
       orient="auto">
      <path
         transform="matrix(0.8,0,0,0.8,10,0)"
         style="fill:#a10000;fill-opacity:1;fill-rule:evenodd;stroke:url(#meshgradient5727);stroke-width:1.00000003pt;stroke-opacity:1"
         d="M 0,0 5,-5 -12.5,0 5,5 Z"
         id="path5049" />
    </marker>
    <marker
       style="overflow:visible"
       id="marker5005"
       refX="0"
       refY="0"
       orient="auto">
      <path
         transform="matrix(0.8,0,0,0.8,10,0)"
         style="fill:#a10000;fill-opacity:1;fill-rule:evenodd;stroke:url(#meshgradient5727);stroke-width:1.00000003pt;stroke-opacity:1"
         d="M 0,0 5,-5 -12.5,0 5,5 Z"
         id="path5003" />
    </marker>
    <marker
       style="overflow:visible"
       id="marker4965"
       refX="0"
       refY="0"
       orient="auto">
      <path
         transform="matrix(0.8,0,0,0.8,10,0)"
         style="fill:#a10000;fill-opacity:1;fill-rule:evenodd;stroke:url(#meshgradient5727);stroke-width:1.00000003pt;stroke-opacity:1"
         d="M 0,0 5,-5 -12.5,0 5,5 Z"
         id="path4963" />
    </marker>
    <marker
       style="overflow:visible"
       id="marker4931"
       refX="0"
       refY="0"
       orient="auto">
      <path
         transform="matrix(0.8,0,0,0.8,10,0)"
         style="fill:#a10000;fill-opacity:1;fill-rule:evenodd;stroke:url(#meshgradient5727);stroke-width:1.00000003pt;stroke-opacity:1"
         d="M 0,0 5,-5 -12.5,0 5,5 Z"
         id="path4929" />
    </marker>
    <marker
       style="overflow:visible"
       id="marker4903"
       refX="0"
       refY="0"
       orient="auto">
      <path
         transform="matrix(0.8,0,0,0.8,10,0)"
         style="fill:#a10000;fill-opacity:1;fill-rule:evenodd;stroke:url(#meshgradient5727);stroke-width:1.00000003pt;stroke-opacity:1"
         d="M 0,0 5,-5 -12.5,0 5,5 Z"
         id="path4901" />
    </marker>
    <marker
       style="overflow:visible"
       id="marker4881"
       refX="0"
       refY="0"
       orient="auto">
      <path
         transform="matrix(0.8,0,0,0.8,10,0)"
         style="fill:#a10000;fill-opacity:1;fill-rule:evenodd;stroke:url(#meshgradient5727);stroke-width:1.00000003pt;stroke-opacity:1"
         d="M 0,0 5,-5 -12.5,0 5,5 Z"
         id="path4879" />
    </marker>
    <marker
       style="overflow:visible"
       id="Arrow1Lstart"
       refX="0"
       refY="0"
       orient="auto">
      <path
         transform="matrix(0.8,0,0,0.8,10,0)"
         style="fill:#a10000;fill-opacity:1;fill-rule:evenodd;stroke:url(#meshgradient5727);stroke-width:1.00000003pt;stroke-opacity:1"
         d="M 0,0 5,-5 -12.5,0 5,5 Z"
         id="path4603" />
    </marker>
    <linearGradient
       id="linearGradient6361">
      <stop
         style="stop-color:#a10000;stop-opacity:1"
         offset="0"
         id="stop6357" />
      <stop
         id="stop6365"
         offset="0.4930703"
         style="stop-color:#0000a0;stop-opacity:0.68627453" />
      <stop
         style="stop-color:#00a000;stop-opacity:1"
         offset="1"
         id="stop6359" />
    </linearGradient>
    <meshgradient
       id="meshgradient5727"
       gradientUnits="userSpaceOnUse"
       x="190.186"
       y="136.23904"
       gradientTransform="matrix(0.70602701,-1.0010069,0.61497056,0.71874457,-48.565131,131.51453)">
      <meshrow
         id="meshrow5729">
        <meshpatch
           id="meshpatch5731">
          <stop
             path="c 0,29.0317  -37.9664,52.5666  -84.8003,52.5666"
             style="stop-color:#ffffff;stop-opacity:1"
             id="stop5733" />
          <stop
             path="l 0,-52.5666"
             style="stop-color:#080564;stop-opacity:1"
             id="stop5735" />
          <stop
             path="l 0,0"
             style="stop-color:#ffffff;stop-opacity:1"
             id="stop5737" />
          <stop
             path="l 84.8003,0"
             style="stop-color:#080564;stop-opacity:1"
             id="stop5739" />
        </meshpatch>
        <meshpatch
           id="meshpatch5741">
          <stop
             path="c -46.8339,0  -84.8003,-23.5349  -84.8003,-52.5666"
             id="stop5743" />
          <stop
             path="l 84.8003,0"
             style="stop-color:#ffffff;stop-opacity:1"
             id="stop5745" />
          <stop
             path="l 0,0"
             style="stop-color:#080564;stop-opacity:1"
             id="stop5747" />
        </meshpatch>
        <meshpatch
           id="meshpatch5749">
          <stop
             path="c -7.10543e-15,-29.0317  37.9664,-52.5666  84.8003,-52.5666"
             id="stop5751" />
          <stop
             path="l 1.42109e-14,52.5666"
             style="stop-color:#080564;stop-opacity:1"
             id="stop5753" />
          <stop
             path="l 0,0"
             style="stop-color:#ffffff;stop-opacity:1"
             id="stop5755" />
        </meshpatch>
        <meshpatch
           id="meshpatch5757">
          <stop
             path="c 46.8339,0  84.8003,23.5349  84.8003,52.5666"
             id="stop5759" />
          <stop
             path="l -84.8003,0"
             style="stop-color:#ffffff;stop-opacity:1"
             id="stop5761" />
          <stop
             path="l 0,0"
             style="stop-color:#080564;stop-opacity:1"
             id="stop5763" />
        </meshpatch>
      </meshrow>
    </meshgradient>
    <meshgradient
       y="136.23904"
       x="190.186"
       gradientTransform="matrix(0.25975414,0.0503202,-0.0503202,0.25975414,33.346062,68.074916)"
       gradientUnits="userSpaceOnUse"
       id="meshgradient5956-563">
      <meshrow
         id="meshrow6066">
        <meshpatch
           id="meshpatch6040">
          <stop
             path="c 0,29.0317  -37.9664,52.5666  -84.8003,52.5666"
             style="stop-color:#ffffff;stop-opacity:1"
             id="stop6032" />
          <stop
             path="l 0,-52.5666"
             style="stop-color:#080564;stop-opacity:1"
             id="stop6034" />
          <stop
             path="l 0,0"
             style="stop-color:#ffffff;stop-opacity:1"
             id="stop6036" />
          <stop
             path="l 84.8003,0"
             style="stop-color:#080564;stop-opacity:1"
             id="stop6038" />
        </meshpatch>
        <meshpatch
           id="meshpatch6048">
          <stop
             path="c -46.8339,0  -84.8003,-23.5349  -84.8003,-52.5666"
             id="stop6042" />
          <stop
             path="l 84.8003,0"
             style="stop-color:#ffffff;stop-opacity:1"
             id="stop6044" />
          <stop
             path="l 0,0"
             style="stop-color:#080564;stop-opacity:1"
             id="stop6046" />
        </meshpatch>
        <meshpatch
           id="meshpatch6056">
          <stop
             path="c -7.10543e-15,-29.0317  37.9664,-52.5666  84.8003,-52.5666"
             id="stop6050" />
          <stop
             path="l 1.42109e-14,52.5666"
             style="stop-color:#080564;stop-opacity:1"
             id="stop6052" />
          <stop
             path="l 0,0"
             style="stop-color:#ffffff;stop-opacity:1"
             id="stop6054" />
        </meshpatch>
        <meshpatch
           id="meshpatch6064">
          <stop
             path="c 46.8339,0  84.8003,23.5349  84.8003,52.5666"
             id="stop6058" />
          <stop
             path="l -84.8003,0"
             style="stop-color:#ffffff;stop-opacity:1"
             id="stop6060" />
          <stop
             path="l 0,0"
             style="stop-color:#080564;stop-opacity:1"
             id="stop6062" />
        </meshpatch>
      </meshrow>
    </meshgradient>
    <meshgradient
       y="136.23904"
       x="190.186"
       gradientTransform="matrix(0.06979056,-0.00546676,0.00546676,0.06979056,27.493895,109.05724)"
       gradientUnits="userSpaceOnUse"
       id="meshgradient6145-722">
      <meshrow
         id="meshrow6274">
        <meshpatch
           id="meshpatch6248">
          <stop
             path="c 0,29.0317  -37.9664,52.5666  -84.8003,52.5666"
             style="stop-color:#ffffff;stop-opacity:1"
             id="stop6240" />
          <stop
             path="l 0,-52.5666"
             style="stop-color:#080564;stop-opacity:1"
             id="stop6242" />
          <stop
             path="l 0,0"
             style="stop-color:#ffffff;stop-opacity:1"
             id="stop6244" />
          <stop
             path="l 84.8003,0"
             style="stop-color:#080564;stop-opacity:1"
             id="stop6246" />
        </meshpatch>
        <meshpatch
           id="meshpatch6256">
          <stop
             path="c -46.8339,0  -84.8003,-23.5349  -84.8003,-52.5666"
             id="stop6250" />
          <stop
             path="l 84.8003,0"
             style="stop-color:#ffffff;stop-opacity:1"
             id="stop6252" />
          <stop
             path="l 0,0"
             style="stop-color:#080564;stop-opacity:1"
             id="stop6254" />
        </meshpatch>
        <meshpatch
           id="meshpatch6264">
          <stop
             path="c -7.10543e-15,-29.0317  37.9664,-52.5666  84.8003,-52.5666"
             id="stop6258" />
          <stop
             path="l 1.42109e-14,52.5666"
             style="stop-color:#080564;stop-opacity:1"
             id="stop6260" />
          <stop
             path="l 0,0"
             style="stop-color:#ffffff;stop-opacity:1"
             id="stop6262" />
        </meshpatch>
        <meshpatch
           id="meshpatch6272">
          <stop
             path="c 46.8339,0  84.8003,23.5349  84.8003,52.5666"
             id="stop6266" />
          <stop
             path="l -84.8003,0"
             style="stop-color:#ffffff;stop-opacity:1"
             id="stop6268" />
          <stop
             path="l 0,0"
             style="stop-color:#080564;stop-opacity:1"
             id="stop6270" />
        </meshpatch>
      </meshrow>
    </meshgradient>
    <linearGradient
       xlink:href="#linearGradient6361"
       id="linearGradient6363"
       x1="5.9657865"
       y1="75.654282"
       x2="203.11067"
       y2="180.14214"
       gradientUnits="userSpaceOnUse"
       gradientTransform="matrix(0.52924359,-0.81783222,0.65209665,0.6637993,-34.756598,127.1985)" />
  </defs>
  <metadata
     id="metadata5">
    <rdf:RDF>
      <cc:Work
         rdf:about="">
        <dc:format>image/svg+xml</dc:format>
        <dc:type
           rdf:resource="http://purl.org/dc/dcmitype/StillImage" />
        <dc:title></dc:title>
      </cc:Work>
    </rdf:RDF>
  </metadata>
  <g
     transform="matrix(0.99836421,0,0,1,-16.156453,-58.338129)"
     id="layer1">
    <path
       style="fill:#ff0000;fill-opacity:0;stroke-width:1.42857146"
       d="M 219.87972,612.10186 C 159.79248,603.9031 98.303493,572.11719 67.468909,533.31512 27.929798,483.55932 41.834506,436.9749 100.93245,421.20348 c 11.20015,-2.98898 14.61982,-3.15023 66.80441,-3.15023 h 55 l 8.32677,4.08867 c 10.04365,4.93171 17.5827,12.13905 19.26826,18.42047 1.65233,6.15756 0.2355,9.68385 -5.44919,13.56229 -4.61698,3.14999 -5.54277,3.21485 -46.28567,3.24258 -47.41367,0.0323 -57.98118,1.10538 -70.34929,7.14383 -39.481813,19.27609 -23.03458,65.47547 33.0941,92.95953 7.87559,3.85638 20.73274,8.77694 28.57142,10.93457 l 14.25217,3.92297 94.28572,0.006 c 93.49487,0.006 94.37047,-0.0213 104.39114,-3.17356 26.3586,-8.29183 36.1314,-27.70989 25.87933,-51.42086 -4.80606,-11.11543 -4.78707,-12.15442 0.32663,-17.87765 4.08647,-4.57354 4.40287,-4.66421 16.07143,-4.60536 19.4149,0.0979 33.43175,8.14515 41.28485,23.70206 17.26186,34.19555 6.21956,66.94039 -27.90161,82.73945 -23.66712,10.95854 -18.01854,10.49887 -132.19463,10.75757 -56.17857,0.12729 -104.07143,-0.0317 -106.42857,-0.35335 z"
       id="path4715"
       transform="scale(0.26458333)" />
    <path
       style="fill:#ff0000;fill-opacity:0;stroke-width:1.42857146"
       d="M 219.87972,612.10186 C 159.79248,603.9031 98.303493,572.11719 67.468909,533.31512 27.929798,483.55932 41.834506,436.9749 100.93245,421.20348 c 11.20015,-2.98898 14.61982,-3.15023 66.80441,-3.15023 h 55 l 8.32677,4.08867 c 10.04365,4.93171 17.5827,12.13905 19.26826,18.42047 1.65233,6.15756 0.2355,9.68385 -5.44919,13.56229 -4.61698,3.14999 -5.54277,3.21485 -46.28567,3.24258 -47.41367,0.0323 -57.98118,1.10538 -70.34929,7.14383 -39.481813,19.27609 -23.03458,65.47547 33.0941,92.95953 7.87559,3.85638 20.73274,8.77694 28.57142,10.93457 l 14.25217,3.92297 94.28572,0.006 c 93.49487,0.006 94.37047,-0.0213 104.39114,-3.17356 26.3586,-8.29183 36.1314,-27.70989 25.87933,-51.42086 -4.80606,-11.11543 -4.78707,-12.15442 0.32663,-17.87765 4.08647,-4.57354 4.40287,-4.66421 16.07143,-4.60536 19.4149,0.0979 33.43175,8.14515 41.28485,23.70206 17.26186,34.19555 6.21956,66.94039 -27.90161,82.73945 -23.66712,10.95854 -18.01854,10.49887 -132.19463,10.75757 -56.17857,0.12729 -104.07143,-0.0317 -106.42857,-0.35335 z"
       id="path4717"
       transform="scale(0.26458333)" />
    <path
       style="fill:#ff0000;fill-opacity:0;stroke-width:1.42857146"
       d="M 219.87972,612.10186 C 159.79248,603.9031 98.303493,572.11719 67.468909,533.31512 27.929798,483.55932 41.834506,436.9749 100.93245,421.20348 c 11.20015,-2.98898 14.61982,-3.15023 66.80441,-3.15023 h 55 l 8.32677,4.08867 c 10.04365,4.93171 17.5827,12.13905 19.26826,18.42047 1.65233,6.15756 0.2355,9.68385 -5.44919,13.56229 -4.61698,3.14999 -5.54277,3.21485 -46.28567,3.24258 -47.41367,0.0323 -57.98118,1.10538 -70.34929,7.14383 -39.481813,19.27609 -23.03458,65.47547 33.0941,92.95953 7.87559,3.85638 20.73274,8.77694 28.57142,10.93457 l 14.25217,3.92297 94.28572,0.006 c 93.49487,0.006 94.37047,-0.0213 104.39114,-3.17356 26.3586,-8.29183 36.1314,-27.70989 25.87933,-51.42086 -4.80606,-11.11543 -4.78707,-12.15442 0.32663,-17.87765 4.08647,-4.57354 4.40287,-4.66421 16.07143,-4.60536 19.4149,0.0979 33.43175,8.14515 41.28485,23.70206 17.26186,34.19555 6.21956,66.94039 -27.90161,82.73945 -23.66712,10.95854 -18.01854,10.49887 -132.19463,10.75757 -56.17857,0.12729 -104.07143,-0.0317 -106.42857,-0.35335 z"
       id="path4719"
       transform="scale(0.26458333)" />
    <path
       style="fill:#ff0000;fill-opacity:0;stroke-width:1.42857146"
       d="M 219.87972,612.10186 C 159.79248,603.9031 98.303493,572.11719 67.468909,533.31512 27.929798,483.55932 41.834506,436.9749 100.93245,421.20348 c 11.20015,-2.98898 14.61982,-3.15023 66.80441,-3.15023 h 55 l 8.32677,4.08867 c 10.04365,4.93171 17.5827,12.13905 19.26826,18.42047 1.65233,6.15756 0.2355,9.68385 -5.44919,13.56229 -4.61698,3.14999 -5.54277,3.21485 -46.28567,3.24258 -47.41367,0.0323 -57.98118,1.10538 -70.34929,7.14383 -39.481813,19.27609 -23.03458,65.47547 33.0941,92.95953 7.87559,3.85638 20.73274,8.77694 28.57142,10.93457 l 14.25217,3.92297 94.28572,0.006 c 93.49487,0.006 94.37047,-0.0213 104.39114,-3.17356 26.3586,-8.29183 36.1314,-27.70989 25.87933,-51.42086 -4.80606,-11.11543 -4.78707,-12.15442 0.32663,-17.87765 4.08647,-4.57354 4.40287,-4.66421 16.07143,-4.60536 19.4149,0.0979 33.43175,8.14515 41.28485,23.70206 17.26186,34.19555 6.21956,66.94039 -27.90161,82.73945 -23.66712,10.95854 -18.01854,10.49887 -132.19463,10.75757 -56.17857,0.12729 -104.07143,-0.0317 -106.42857,-0.35335 z"
       id="path4721"
       transform="scale(0.26458333)" />
    <path
       style="fill:#ff0000;fill-opacity:0;stroke-width:1.42857146"
       d="M 219.87972,612.10186 C 159.79248,603.9031 98.303493,572.11719 67.468909,533.31512 27.929798,483.55932 41.834506,436.9749 100.93245,421.20348 c 11.20015,-2.98898 14.61982,-3.15023 66.80441,-3.15023 h 55 l 8.32677,4.08867 c 10.04365,4.93171 17.5827,12.13905 19.26826,18.42047 1.65233,6.15756 0.2355,9.68385 -5.44919,13.56229 -4.61698,3.14999 -5.54277,3.21485 -46.28567,3.24258 -47.41367,0.0323 -57.98118,1.10538 -70.34929,7.14383 -39.481813,19.27609 -23.03458,65.47547 33.0941,92.95953 7.87559,3.85638 20.73274,8.77694 28.57142,10.93457 l 14.25217,3.92297 94.28572,0.006 c 93.49487,0.006 94.37047,-0.0213 104.39114,-3.17356 26.3586,-8.29183 36.1314,-27.70989 25.87933,-51.42086 -4.80606,-11.11543 -4.78707,-12.15442 0.32663,-17.87765 4.08647,-4.57354 4.40287,-4.66421 16.07143,-4.60536 19.4149,0.0979 33.43175,8.14515 41.28485,23.70206 17.26186,34.19555 6.21956,66.94039 -27.90161,82.73945 -23.66712,10.95854 -18.01854,10.49887 -132.19463,10.75757 -56.17857,0.12729 -104.07143,-0.0317 -106.42857,-0.35335 z"
       id="path4723"
       transform="scale(0.26458333)" />
    <path
       style="fill:#ff0000;fill-opacity:0;stroke-width:1.42857146"
       d="M 219.87972,612.10186 C 159.79248,603.9031 98.303493,572.11719 67.468909,533.31512 27.929798,483.55932 41.834506,436.9749 100.93245,421.20348 c 11.20015,-2.98898 14.61982,-3.15023 66.80441,-3.15023 h 55 l 8.32677,4.08867 c 10.04365,4.93171 17.5827,12.13905 19.26826,18.42047 1.65233,6.15756 0.2355,9.68385 -5.44919,13.56229 -4.61698,3.14999 -5.54277,3.21485 -46.28567,3.24258 -47.41367,0.0323 -57.98118,1.10538 -70.34929,7.14383 -39.481813,19.27609 -23.03458,65.47547 33.0941,92.95953 7.87559,3.85638 20.73274,8.77694 28.57142,10.93457 l 14.25217,3.92297 94.28572,0.006 c 93.49487,0.006 94.37047,-0.0213 104.39114,-3.17356 26.3586,-8.29183 36.1314,-27.70989 25.87933,-51.42086 -4.80606,-11.11543 -4.78707,-12.15442 0.32663,-17.87765 4.08647,-4.57354 4.40287,-4.66421 16.07143,-4.60536 19.4149,0.0979 33.43175,8.14515 41.28485,23.70206 17.26186,34.19555 6.21956,66.94039 -27.90161,82.73945 -23.66712,10.95854 -18.01854,10.49887 -132.19463,10.75757 -56.17857,0.12729 -104.07143,-0.0317 -106.42857,-0.35335 z"
       id="path4725"
       transform="scale(0.26458333)" />
    <path
       style="fill:#ff0000;fill-opacity:0;stroke-width:1.42857146"
       d="M 219.87972,612.10186 C 159.79248,603.9031 98.303493,572.11719 67.468909,533.31512 27.929798,483.55932 41.834506,436.9749 100.93245,421.20348 c 11.20015,-2.98898 14.61982,-3.15023 66.80441,-3.15023 h 55 l 8.32677,4.08867 c 10.04365,4.93171 17.5827,12.13905 19.26826,18.42047 1.65233,6.15756 0.2355,9.68385 -5.44919,13.56229 -4.61698,3.14999 -5.54277,3.21485 -46.28567,3.24258 -47.41367,0.0323 -57.98118,1.10538 -70.34929,7.14383 -39.481813,19.27609 -23.03458,65.47547 33.0941,92.95953 7.87559,3.85638 20.73274,8.77694 28.57142,10.93457 l 14.25217,3.92297 94.28572,0.006 c 93.49487,0.006 94.37047,-0.0213 104.39114,-3.17356 26.3586,-8.29183 36.1314,-27.70989 25.87933,-51.42086 -4.80606,-11.11543 -4.78707,-12.15442 0.32663,-17.87765 4.08647,-4.57354 4.40287,-4.66421 16.07143,-4.60536 19.4149,0.0979 33.43175,8.14515 41.28485,23.70206 17.26186,34.19555 6.21956,66.94039 -27.90161,82.73945 -23.66712,10.95854 -18.01854,10.49887 -132.19463,10.75757 -56.17857,0.12729 -104.07143,-0.0317 -106.42857,-0.35335 z"
       id="path4727"
       transform="scale(0.26458333)" />
    <path
       style="fill:#ff0000;fill-opacity:0;stroke-width:1.42857146"
       d="M 402.73686,617.85173 C 386.61225,615.3098 366.54722,608.30833 299.06756,581.67746 209.64319,546.38608 206.49016,545.04533 190.594,535.55179 170.0166,523.26252 157.78591,513.47358 137.72245,493.23556 110.66804,465.94579 93.980056,440.12869 84.046359,410.1961 80.416978,399.25992 80.009724,396.06579 79.94812,378.05325 c -0.06411,-18.74585 0.169925,-20.5084 3.73218,-28.10735 7.341662,-15.66114 18.97769,-25.10376 37.60978,-30.52025 11.15819,-3.24377 38.323,-2.22163 52.91315,1.99099 19.82115,5.72296 88.87176,33.97429 96.21692,39.36613 15.75253,11.56342 22.93567,31.02829 14.32581,38.8201 -5.45983,4.94108 -13.05823,3.1197 -53.65673,-12.86184 -52.51351,-20.67186 -63.96872,-22.6869 -81.20951,-14.28523 -13.13873,6.40267 -18.75835,17.92707 -17.43396,35.75258 1.44102,19.39522 13.19469,41.41199 32.98176,61.78085 13.26741,13.65752 24.48875,22.12476 38.7662,29.25162 13.59035,6.78388 156.44276,63.12077 167.05757,65.8827 17.97866,4.67797 34.96909,1.82277 43.94074,-7.38413 7.75166,-7.95492 10.22009,-14.81753 10.05419,-27.95217 -0.12272,-9.71355 0.28248,-11.61445 3.19723,-15 10.46907,-12.16016 42.41885,6.14971 48.75338,27.93971 2.50357,8.61202 2.12289,26.27629 -0.77715,36.06017 -4.74966,16.02397 -19.30045,30.68913 -35.44132,35.71989 -9.50164,2.96144 -29.54968,4.7149 -38.2415,3.34471 z"
       id="path5619"
       transform="scale(0.26458333)" />
    <path
       style="fill:#ff0000;fill-opacity:0;stroke-width:1.42857146"
       d="M 402.73686,617.85173 C 386.61225,615.3098 366.54722,608.30833 299.06756,581.67746 209.64319,546.38608 206.49016,545.04533 190.594,535.55179 170.0166,523.26252 157.78591,513.47358 137.72245,493.23556 110.66804,465.94579 93.980056,440.12869 84.046359,410.1961 80.416978,399.25992 80.009724,396.06579 79.94812,378.05325 c -0.06411,-18.74585 0.169925,-20.5084 3.73218,-28.10735 7.341662,-15.66114 18.97769,-25.10376 37.60978,-30.52025 11.15819,-3.24377 38.323,-2.22163 52.91315,1.99099 19.82115,5.72296 88.87176,33.97429 96.21692,39.36613 15.75253,11.56342 22.93567,31.02829 14.32581,38.8201 -5.45983,4.94108 -13.05823,3.1197 -53.65673,-12.86184 -52.51351,-20.67186 -63.96872,-22.6869 -81.20951,-14.28523 -13.13873,6.40267 -18.75835,17.92707 -17.43396,35.75258 1.44102,19.39522 13.19469,41.41199 32.98176,61.78085 13.26741,13.65752 24.48875,22.12476 38.7662,29.25162 13.59035,6.78388 156.44276,63.12077 167.05757,65.8827 17.97866,4.67797 34.96909,1.82277 43.94074,-7.38413 7.75166,-7.95492 10.22009,-14.81753 10.05419,-27.95217 -0.12272,-9.71355 0.28248,-11.61445 3.19723,-15 10.46907,-12.16016 42.41885,6.14971 48.75338,27.93971 2.50357,8.61202 2.12289,26.27629 -0.77715,36.06017 -4.74966,16.02397 -19.30045,30.68913 -35.44132,35.71989 -9.50164,2.96144 -29.54968,4.7149 -38.2415,3.34471 z"
       id="path5621"
       transform="scale(0.26458333)" />
    <path
       style="fill:#550000;fill-opacity:0;stroke-width:1.42857146"
       d="M 402.73686,617.85173 C 386.61225,615.3098 366.54722,608.30833 299.06756,581.67746 209.64319,546.38608 206.49016,545.04533 190.594,535.55179 170.0166,523.26252 157.78591,513.47358 137.72245,493.23556 110.66804,465.94579 93.980056,440.12869 84.046359,410.1961 80.416978,399.25992 80.009724,396.06579 79.94812,378.05325 c -0.06411,-18.74585 0.169925,-20.5084 3.73218,-28.10735 7.341662,-15.66114 18.97769,-25.10376 37.60978,-30.52025 11.15819,-3.24377 38.323,-2.22163 52.91315,1.99099 19.82115,5.72296 88.87176,33.97429 96.21692,39.36613 15.75253,11.56342 22.93567,31.02829 14.32581,38.8201 -5.45983,4.94108 -13.05823,3.1197 -53.65673,-12.86184 -52.51351,-20.67186 -63.96872,-22.6869 -81.20951,-14.28523 -13.13873,6.40267 -18.75835,17.92707 -17.43396,35.75258 1.44102,19.39522 13.19469,41.41199 32.98176,61.78085 13.26741,13.65752 24.48875,22.12476 38.7662,29.25162 13.59035,6.78388 156.44276,63.12077 167.05757,65.8827 17.97866,4.67797 34.96909,1.82277 43.94074,-7.38413 7.75166,-7.95492 10.22009,-14.81753 10.05419,-27.95217 -0.12272,-9.71355 0.28248,-11.61445 3.19723,-15 10.46907,-12.16016 42.41885,6.14971 48.75338,27.93971 2.50357,8.61202 2.12289,26.27629 -0.77715,36.06017 -4.74966,16.02397 -19.30045,30.68913 -35.44132,35.71989 -9.50164,2.96144 -29.54968,4.7149 -38.2415,3.34471 z"
       id="path5623"
       transform="scale(0.26458333)" />
    <path
       style="fill:#550000;fill-opacity:0;stroke-width:1.42857146"
       d="M 402.73686,617.85173 C 386.61225,615.3098 366.54722,608.30833 299.06756,581.67746 209.64319,546.38608 206.49016,545.04533 190.594,535.55179 170.0166,523.26252 157.78591,513.47358 137.72245,493.23556 110.66804,465.94579 93.980056,440.12869 84.046359,410.1961 80.416978,399.25992 80.009724,396.06579 79.94812,378.05325 c -0.06411,-18.74585 0.169925,-20.5084 3.73218,-28.10735 7.341662,-15.66114 18.97769,-25.10376 37.60978,-30.52025 11.15819,-3.24377 38.323,-2.22163 52.91315,1.99099 19.82115,5.72296 88.87176,33.97429 96.21692,39.36613 15.75253,11.56342 22.93567,31.02829 14.32581,38.8201 -5.45983,4.94108 -13.05823,3.1197 -53.65673,-12.86184 -52.51351,-20.67186 -63.96872,-22.6869 -81.20951,-14.28523 -13.13873,6.40267 -18.75835,17.92707 -17.43396,35.75258 1.44102,19.39522 13.19469,41.41199 32.98176,61.78085 13.26741,13.65752 24.48875,22.12476 38.7662,29.25162 13.59035,6.78388 156.44276,63.12077 167.05757,65.8827 17.97866,4.67797 34.96909,1.82277 43.94074,-7.38413 7.75166,-7.95492 10.22009,-14.81753 10.05419,-27.95217 -0.12272,-9.71355 0.28248,-11.61445 3.19723,-15 10.46907,-12.16016 42.41885,6.14971 48.75338,27.93971 2.50357,8.61202 2.12289,26.27629 -0.77715,36.06017 -4.74966,16.02397 -19.30045,30.68913 -35.44132,35.71989 -9.50164,2.96144 -29.54968,4.7149 -38.2415,3.34471 z"
       id="path5625"
       transform="scale(0.26458333)" />
    <path
       style="fill:#550000;fill-opacity:0;stroke-width:1.42857146"
       d="M 402.73686,617.85173 C 386.61225,615.3098 366.54722,608.30833 299.06756,581.67746 209.64319,546.38608 206.49016,545.04533 190.594,535.55179 170.0166,523.26252 157.78591,513.47358 137.72245,493.23556 110.66804,465.94579 93.980056,440.12869 84.046359,410.1961 80.416978,399.25992 80.009724,396.06579 79.94812,378.05325 c -0.06411,-18.74585 0.169925,-20.5084 3.73218,-28.10735 7.341662,-15.66114 18.97769,-25.10376 37.60978,-30.52025 11.15819,-3.24377 38.323,-2.22163 52.91315,1.99099 19.82115,5.72296 88.87176,33.97429 96.21692,39.36613 15.75253,11.56342 22.93567,31.02829 14.32581,38.8201 -5.45983,4.94108 -13.05823,3.1197 -53.65673,-12.86184 -52.51351,-20.67186 -63.96872,-22.6869 -81.20951,-14.28523 -13.13873,6.40267 -18.75835,17.92707 -17.43396,35.75258 1.44102,19.39522 13.19469,41.41199 32.98176,61.78085 13.26741,13.65752 24.48875,22.12476 38.7662,29.25162 13.59035,6.78388 156.44276,63.12077 167.05757,65.8827 17.97866,4.67797 34.96909,1.82277 43.94074,-7.38413 7.75166,-7.95492 10.22009,-14.81753 10.05419,-27.95217 -0.12272,-9.71355 0.28248,-11.61445 3.19723,-15 10.46907,-12.16016 42.41885,6.14971 48.75338,27.93971 2.50357,8.61202 2.12289,26.27629 -0.77715,36.06017 -4.74966,16.02397 -19.30045,30.68913 -35.44132,35.71989 -9.50164,2.96144 -29.54968,4.7149 -38.2415,3.34471 z"
       id="path5627"
       transform="scale(0.26458333)" />
    <path
       style="fill:#550000;fill-opacity:0;stroke-width:1.42857146"
       d="M 402.73686,617.85173 C 386.61225,615.3098 366.54722,608.30833 299.06756,581.67746 209.64319,546.38608 206.49016,545.04533 190.594,535.55179 170.0166,523.26252 157.78591,513.47358 137.72245,493.23556 110.66804,465.94579 93.980056,440.12869 84.046359,410.1961 80.416978,399.25992 80.009724,396.06579 79.94812,378.05325 c -0.06411,-18.74585 0.169925,-20.5084 3.73218,-28.10735 7.341662,-15.66114 18.97769,-25.10376 37.60978,-30.52025 11.15819,-3.24377 38.323,-2.22163 52.91315,1.99099 19.82115,5.72296 88.87176,33.97429 96.21692,39.36613 15.75253,11.56342 22.93567,31.02829 14.32581,38.8201 -5.45983,4.94108 -13.05823,3.1197 -53.65673,-12.86184 -52.51351,-20.67186 -63.96872,-22.6869 -81.20951,-14.28523 -13.13873,6.40267 -18.75835,17.92707 -17.43396,35.75258 1.44102,19.39522 13.19469,41.41199 32.98176,61.78085 13.26741,13.65752 24.48875,22.12476 38.7662,29.25162 13.59035,6.78388 156.44276,63.12077 167.05757,65.8827 17.97866,4.67797 34.96909,1.82277 43.94074,-7.38413 7.75166,-7.95492 10.22009,-14.81753 10.05419,-27.95217 -0.12272,-9.71355 0.28248,-11.61445 3.19723,-15 10.46907,-12.16016 42.41885,6.14971 48.75338,27.93971 2.50357,8.61202 2.12289,26.27629 -0.77715,36.06017 -4.74966,16.02397 -19.30045,30.68913 -35.44132,35.71989 -9.50164,2.96144 -29.54968,4.7149 -38.2415,3.34471 z"
       id="path5629"
       transform="scale(0.26458333)" />
    <path
       style="fill:#550000;fill-opacity:0;stroke-width:0.71428573"
       d="m 399.63312,617.62955 c -14.45281,-2.20069 -22.44656,-4.68495 -50,-15.53873 C 215.36032,549.1984 205.27548,544.99518 188.56169,534.9584 165.02684,520.82554 139.30114,498.72828 121.92884,477.7237 100.44772,451.75119 85.881547,423.87458 80.221841,397.9052 c -1.350545,-6.19694 -1.615783,-9.60015 -1.634267,-20.96897 -0.01949,-11.9891 0.165078,-14.21773 1.583045,-19.11467 6.472475,-22.35265 22.739741,-36.23166 47.171791,-40.24635 5.24201,-0.86137 9.72175,-1.04295 18.36214,-0.74427 18.15405,0.62756 28.9202,3.2508 54.59401,13.30222 31.78009,12.44206 59.30152,23.54793 63.03491,25.4368 9.28453,4.69743 17.61453,13.08227 22.23745,22.38385 2.78373,5.60101 2.99077,6.42561 2.99077,11.91191 0,4.87689 -0.25948,6.24243 -1.50324,7.91099 -3.27411,4.39239 -9.41431,6.09354 -16.16606,4.47885 -2.0676,-0.49447 -18.73369,-6.76783 -37.03575,-13.94078 -39.52292,-15.48986 -43.45659,-16.90849 -51.34699,-18.51761 -8.3023,-1.69313 -22.10655,-1.20988 -28.23368,0.98839 -19.83605,7.1167 -26.56757,27.38208 -17.80595,53.60522 9.44367,28.26445 35.97248,57.72732 66.37738,73.71865 5.97938,3.14482 24.9958,10.86942 94.64286,38.44455 45.65631,18.07655 65.46211,25.67057 71.99757,27.6056 8.41824,2.49247 23.24984,3.1704 30.09429,1.37557 12.60567,-3.30563 21.53673,-11.99152 24.26502,-23.59892 0.4617,-1.96428 0.90778,-8.23214 0.99129,-13.92857 0.17911,-12.21788 0.83194,-13.73391 7.06972,-16.41732 9.06839,-3.90112 22.76801,1.32456 34.58924,13.19397 6.97806,7.00651 11.28561,14.86461 12.53451,22.86621 1.09285,7.00181 0.34065,21.52322 -1.48,28.57143 -5.34084,20.67585 -20.13702,35.05518 -41.56628,40.39523 -7.96185,1.98405 -26.56818,2.50221 -36.3525,1.01237 z"
       id="path5635"
       transform="scale(0.26458333)" />
    <path
       style="fill:#550000;fill-opacity:0;stroke-width:0.71428573"
       d="m 399.63312,617.62955 c -14.45281,-2.20069 -22.44656,-4.68495 -50,-15.53873 C 215.36032,549.1984 205.27548,544.99518 188.56169,534.9584 165.02684,520.82554 139.30114,498.72828 121.92884,477.7237 100.44772,451.75119 85.881547,423.87458 80.221841,397.9052 c -1.350545,-6.19694 -1.615783,-9.60015 -1.634267,-20.96897 -0.01949,-11.9891 0.165078,-14.21773 1.583045,-19.11467 6.472475,-22.35265 22.739741,-36.23166 47.171791,-40.24635 5.24201,-0.86137 9.72175,-1.04295 18.36214,-0.74427 18.15405,0.62756 28.9202,3.2508 54.59401,13.30222 31.78009,12.44206 59.30152,23.54793 63.03491,25.4368 9.28453,4.69743 17.61453,13.08227 22.23745,22.38385 2.78373,5.60101 2.99077,6.42561 2.99077,11.91191 0,4.87689 -0.25948,6.24243 -1.50324,7.91099 -3.27411,4.39239 -9.41431,6.09354 -16.16606,4.47885 -2.0676,-0.49447 -18.73369,-6.76783 -37.03575,-13.94078 -39.52292,-15.48986 -43.45659,-16.90849 -51.34699,-18.51761 -8.3023,-1.69313 -22.10655,-1.20988 -28.23368,0.98839 -19.83605,7.1167 -26.56757,27.38208 -17.80595,53.60522 9.44367,28.26445 35.97248,57.72732 66.37738,73.71865 5.97938,3.14482 24.9958,10.86942 94.64286,38.44455 45.65631,18.07655 65.46211,25.67057 71.99757,27.6056 8.41824,2.49247 23.24984,3.1704 30.09429,1.37557 12.60567,-3.30563 21.53673,-11.99152 24.26502,-23.59892 0.4617,-1.96428 0.90778,-8.23214 0.99129,-13.92857 0.17911,-12.21788 0.83194,-13.73391 7.06972,-16.41732 9.06839,-3.90112 22.76801,1.32456 34.58924,13.19397 6.97806,7.00651 11.28561,14.86461 12.53451,22.86621 1.09285,7.00181 0.34065,21.52322 -1.48,28.57143 -5.34084,20.67585 -20.13702,35.05518 -41.56628,40.39523 -7.96185,1.98405 -26.56818,2.50221 -36.3525,1.01237 z"
       id="path5637"
       transform="scale(0.26458333)" />
    <path
       style="fill:#550000;fill-opacity:0;stroke-width:0.71428573"
       d="m 399.63312,617.62955 c -14.45281,-2.20069 -22.44656,-4.68495 -50,-15.53873 C 215.36032,549.1984 205.27548,544.99518 188.56169,534.9584 165.02684,520.82554 139.30114,498.72828 121.92884,477.7237 100.44772,451.75119 85.881547,423.87458 80.221841,397.9052 c -1.350545,-6.19694 -1.615783,-9.60015 -1.634267,-20.96897 -0.01949,-11.9891 0.165078,-14.21773 1.583045,-19.11467 6.472475,-22.35265 22.739741,-36.23166 47.171791,-40.24635 5.24201,-0.86137 9.72175,-1.04295 18.36214,-0.74427 18.15405,0.62756 28.9202,3.2508 54.59401,13.30222 31.78009,12.44206 59.30152,23.54793 63.03491,25.4368 9.28453,4.69743 17.61453,13.08227 22.23745,22.38385 2.78373,5.60101 2.99077,6.42561 2.99077,11.91191 0,4.87689 -0.25948,6.24243 -1.50324,7.91099 -3.27411,4.39239 -9.41431,6.09354 -16.16606,4.47885 -2.0676,-0.49447 -18.73369,-6.76783 -37.03575,-13.94078 -39.52292,-15.48986 -43.45659,-16.90849 -51.34699,-18.51761 -8.3023,-1.69313 -22.10655,-1.20988 -28.23368,0.98839 -19.83605,7.1167 -26.56757,27.38208 -17.80595,53.60522 9.44367,28.26445 35.97248,57.72732 66.37738,73.71865 5.97938,3.14482 24.9958,10.86942 94.64286,38.44455 45.65631,18.07655 65.46211,25.67057 71.99757,27.6056 8.41824,2.49247 23.24984,3.1704 30.09429,1.37557 12.60567,-3.30563 21.53673,-11.99152 24.26502,-23.59892 0.4617,-1.96428 0.90778,-8.23214 0.99129,-13.92857 0.17911,-12.21788 0.83194,-13.73391 7.06972,-16.41732 9.06839,-3.90112 22.76801,1.32456 34.58924,13.19397 6.97806,7.00651 11.28561,14.86461 12.53451,22.86621 1.09285,7.00181 0.34065,21.52322 -1.48,28.57143 -5.34084,20.67585 -20.13702,35.05518 -41.56628,40.39523 -7.96185,1.98405 -26.56818,2.50221 -36.3525,1.01237 z"
       id="path5639"
       transform="scale(0.26458333)" />
    <path
       style="fill:#550000;fill-opacity:0;stroke-width:0.71428573"
       d="m 399.63312,617.62955 c -14.45281,-2.20069 -22.44656,-4.68495 -50,-15.53873 C 215.36032,549.1984 205.27548,544.99518 188.56169,534.9584 165.02684,520.82554 139.30114,498.72828 121.92884,477.7237 100.44772,451.75119 85.881547,423.87458 80.221841,397.9052 c -1.350545,-6.19694 -1.615783,-9.60015 -1.634267,-20.96897 -0.01949,-11.9891 0.165078,-14.21773 1.583045,-19.11467 6.472475,-22.35265 22.739741,-36.23166 47.171791,-40.24635 5.24201,-0.86137 9.72175,-1.04295 18.36214,-0.74427 18.15405,0.62756 28.9202,3.2508 54.59401,13.30222 31.78009,12.44206 59.30152,23.54793 63.03491,25.4368 9.28453,4.69743 17.61453,13.08227 22.23745,22.38385 2.78373,5.60101 2.99077,6.42561 2.99077,11.91191 0,4.87689 -0.25948,6.24243 -1.50324,7.91099 -3.27411,4.39239 -9.41431,6.09354 -16.16606,4.47885 -2.0676,-0.49447 -18.73369,-6.76783 -37.03575,-13.94078 -39.52292,-15.48986 -43.45659,-16.90849 -51.34699,-18.51761 -8.3023,-1.69313 -22.10655,-1.20988 -28.23368,0.98839 -19.83605,7.1167 -26.56757,27.38208 -17.80595,53.60522 9.44367,28.26445 35.97248,57.72732 66.37738,73.71865 5.97938,3.14482 24.9958,10.86942 94.64286,38.44455 45.65631,18.07655 65.46211,25.67057 71.99757,27.6056 8.41824,2.49247 23.24984,3.1704 30.09429,1.37557 12.60567,-3.30563 21.53673,-11.99152 24.26502,-23.59892 0.4617,-1.96428 0.90778,-8.23214 0.99129,-13.92857 0.17911,-12.21788 0.83194,-13.73391 7.06972,-16.41732 9.06839,-3.90112 22.76801,1.32456 34.58924,13.19397 6.97806,7.00651 11.28561,14.86461 12.53451,22.86621 1.09285,7.00181 0.34065,21.52322 -1.48,28.57143 -5.34084,20.67585 -20.13702,35.05518 -41.56628,40.39523 -7.96185,1.98405 -26.56818,2.50221 -36.3525,1.01237 z"
       id="path5667"
       transform="scale(0.26458333)" />
    <path
       style="fill:#550000;fill-opacity:0;stroke-width:0.71428573"
       d="m 399.63312,617.62955 c -14.45281,-2.20069 -22.44656,-4.68495 -50,-15.53873 C 215.36032,549.1984 205.27548,544.99518 188.56169,534.9584 165.02684,520.82554 139.30114,498.72828 121.92884,477.7237 100.44772,451.75119 85.881547,423.87458 80.221841,397.9052 c -1.350545,-6.19694 -1.615783,-9.60015 -1.634267,-20.96897 -0.01949,-11.9891 0.165078,-14.21773 1.583045,-19.11467 6.472475,-22.35265 22.739741,-36.23166 47.171791,-40.24635 5.24201,-0.86137 9.72175,-1.04295 18.36214,-0.74427 18.15405,0.62756 28.9202,3.2508 54.59401,13.30222 31.78009,12.44206 59.30152,23.54793 63.03491,25.4368 9.28453,4.69743 17.61453,13.08227 22.23745,22.38385 2.78373,5.60101 2.99077,6.42561 2.99077,11.91191 0,4.87689 -0.25948,6.24243 -1.50324,7.91099 -3.27411,4.39239 -9.41431,6.09354 -16.16606,4.47885 -2.0676,-0.49447 -18.73369,-6.76783 -37.03575,-13.94078 -39.52292,-15.48986 -43.45659,-16.90849 -51.34699,-18.51761 -8.3023,-1.69313 -22.10655,-1.20988 -28.23368,0.98839 -19.83605,7.1167 -26.56757,27.38208 -17.80595,53.60522 9.44367,28.26445 35.97248,57.72732 66.37738,73.71865 5.97938,3.14482 24.9958,10.86942 94.64286,38.44455 45.65631,18.07655 65.46211,25.67057 71.99757,27.6056 8.41824,2.49247 23.24984,3.1704 30.09429,1.37557 12.60567,-3.30563 21.53673,-11.99152 24.26502,-23.59892 0.4617,-1.96428 0.90778,-8.23214 0.99129,-13.92857 0.17911,-12.21788 0.83194,-13.73391 7.06972,-16.41732 9.06839,-3.90112 22.76801,1.32456 34.58924,13.19397 6.97806,7.00651 11.28561,14.86461 12.53451,22.86621 1.09285,7.00181 0.34065,21.52322 -1.48,28.57143 -5.34084,20.67585 -20.13702,35.05518 -41.56628,40.39523 -7.96185,1.98405 -26.56818,2.50221 -36.3525,1.01237 z"
       id="path5669"
       transform="scale(0.26458333)" />
    <path
       style="fill:#550000;fill-opacity:0;stroke-width:0.71428573"
       d="m 399.63312,617.62955 c -14.45281,-2.20069 -22.44656,-4.68495 -50,-15.53873 C 215.36032,549.1984 205.27548,544.99518 188.56169,534.9584 165.02684,520.82554 139.30114,498.72828 121.92884,477.7237 100.44772,451.75119 85.881547,423.87458 80.221841,397.9052 c -1.350545,-6.19694 -1.615783,-9.60015 -1.634267,-20.96897 -0.01949,-11.9891 0.165078,-14.21773 1.583045,-19.11467 6.472475,-22.35265 22.739741,-36.23166 47.171791,-40.24635 5.24201,-0.86137 9.72175,-1.04295 18.36214,-0.74427 18.15405,0.62756 28.9202,3.2508 54.59401,13.30222 31.78009,12.44206 59.30152,23.54793 63.03491,25.4368 9.28453,4.69743 17.61453,13.08227 22.23745,22.38385 2.78373,5.60101 2.99077,6.42561 2.99077,11.91191 0,4.87689 -0.25948,6.24243 -1.50324,7.91099 -3.27411,4.39239 -9.41431,6.09354 -16.16606,4.47885 -2.0676,-0.49447 -18.73369,-6.76783 -37.03575,-13.94078 -39.52292,-15.48986 -43.45659,-16.90849 -51.34699,-18.51761 -8.3023,-1.69313 -22.10655,-1.20988 -28.23368,0.98839 -19.83605,7.1167 -26.56757,27.38208 -17.80595,53.60522 9.44367,28.26445 35.97248,57.72732 66.37738,73.71865 5.97938,3.14482 24.9958,10.86942 94.64286,38.44455 45.65631,18.07655 65.46211,25.67057 71.99757,27.6056 8.41824,2.49247 23.24984,3.1704 30.09429,1.37557 12.60567,-3.30563 21.53673,-11.99152 24.26502,-23.59892 0.4617,-1.96428 0.90778,-8.23214 0.99129,-13.92857 0.17911,-12.21788 0.83194,-13.73391 7.06972,-16.41732 9.06839,-3.90112 22.76801,1.32456 34.58924,13.19397 6.97806,7.00651 11.28561,14.86461 12.53451,22.86621 1.09285,7.00181 0.34065,21.52322 -1.48,28.57143 -5.34084,20.67585 -20.13702,35.05518 -41.56628,40.39523 -7.96185,1.98405 -26.56818,2.50221 -36.3525,1.01237 z"
       id="path5671"
       transform="scale(0.26458333)" />
    <path
       style="fill:#550000;fill-opacity:0;stroke-width:0.71428573"
       d="M 401.51058,618.40237 C 387.31726,616.20886 376.08045,612.80553 361.29482,606.22206 330.47557,592.49944 232.48991,547.3488 214.72487,538.68436 190.64058,526.93787 170.94867,512.56846 149.71154,491.24341 130.43567,471.88772 116.32503,452.91582 104.17422,430.018 90.620124,404.47574 84.077313,377.23721 86.40269,356.03295 c 1.123081,-10.24096 2.413316,-14.94776 6.315454,-23.03884 2.789487,-5.784 4.204773,-7.70099 9.777036,-13.2429 7.75927,-7.71702 14.62361,-11.6228 25.28409,-14.38654 17.25595,-4.47363 41.0605,-2.23441 62.40083,5.86985 15.76569,5.98722 80.43757,36.14969 85.53993,39.89516 4.55229,3.34169 10.84131,10.06241 13.9207,14.87628 10.04491,15.70271 7.11079,29.82256 -6.19714,29.82256 -5.93818,0 -4.2421,0.68807 -57.68657,-23.40228 -28.45107,-12.82446 -33.61457,-14.67797 -44.00637,-15.79668 -21.4144,-2.30535 -36.26327,5.98657 -41.41601,23.12753 -0.96771,3.21917 -1.27901,6.59656 -1.25088,13.57143 0.0441,10.93962 1.79951,18.53799 7.02642,30.41467 11.41804,25.94425 34.98369,51.46398 61.11469,66.18235 4.0951,2.30658 25.83263,12.41305 91.42857,42.50805 70.59023,32.38634 72.25663,33.04137 86.19202,33.88051 18.79358,1.13169 32.71497,-7.02854 37.49221,-21.97662 0.99027,-3.09859 1.63109,-7.69994 1.98085,-14.22324 0.36051,-6.72401 0.87273,-10.3234 1.69219,-11.89114 2.60738,-4.98824 12.06989,-6.78224 20.04152,-3.79967 12.37742,4.63098 24.86267,17.37839 29.13208,29.74376 1.48186,4.29187 1.67189,6.0729 1.58719,14.87562 -0.1169,12.1507 -2.04014,20.52113 -7.1274,31.02044 -2.75858,5.69327 -4.28359,7.79825 -9.11825,12.58591 -4.98697,4.9385 -6.96365,6.31598 -14.0176,9.76838 -4.51658,2.21054 -10.30124,4.54633 -12.85481,5.19065 -6.27984,1.58452 -24.16887,2.02652 -32.14286,0.79418 z"
       id="path5931"
       transform="scale(0.26458333)" />
    <path
       style="fill:#550000;fill-opacity:0;stroke-width:0.71428573"
       d="M 401.51058,618.40237 C 387.31726,616.20886 376.08045,612.80553 361.29482,606.22206 330.47557,592.49944 232.48991,547.3488 214.72487,538.68436 190.64058,526.93787 170.94867,512.56846 149.71154,491.24341 130.43567,471.88772 116.32503,452.91582 104.17422,430.018 90.620124,404.47574 84.077313,377.23721 86.40269,356.03295 c 1.123081,-10.24096 2.413316,-14.94776 6.315454,-23.03884 2.789487,-5.784 4.204773,-7.70099 9.777036,-13.2429 7.75927,-7.71702 14.62361,-11.6228 25.28409,-14.38654 17.25595,-4.47363 41.0605,-2.23441 62.40083,5.86985 15.76569,5.98722 80.43757,36.14969 85.53993,39.89516 4.55229,3.34169 10.84131,10.06241 13.9207,14.87628 10.04491,15.70271 7.11079,29.82256 -6.19714,29.82256 -5.93818,0 -4.2421,0.68807 -57.68657,-23.40228 -28.45107,-12.82446 -33.61457,-14.67797 -44.00637,-15.79668 -21.4144,-2.30535 -36.26327,5.98657 -41.41601,23.12753 -0.96771,3.21917 -1.27901,6.59656 -1.25088,13.57143 0.0441,10.93962 1.79951,18.53799 7.02642,30.41467 11.41804,25.94425 34.98369,51.46398 61.11469,66.18235 4.0951,2.30658 25.83263,12.41305 91.42857,42.50805 70.59023,32.38634 72.25663,33.04137 86.19202,33.88051 18.79358,1.13169 32.71497,-7.02854 37.49221,-21.97662 0.99027,-3.09859 1.63109,-7.69994 1.98085,-14.22324 0.36051,-6.72401 0.87273,-10.3234 1.69219,-11.89114 2.60738,-4.98824 12.06989,-6.78224 20.04152,-3.79967 12.37742,4.63098 24.86267,17.37839 29.13208,29.74376 1.48186,4.29187 1.67189,6.0729 1.58719,14.87562 -0.1169,12.1507 -2.04014,20.52113 -7.1274,31.02044 -2.75858,5.69327 -4.28359,7.79825 -9.11825,12.58591 -4.98697,4.9385 -6.96365,6.31598 -14.0176,9.76838 -4.51658,2.21054 -10.30124,4.54633 -12.85481,5.19065 -6.27984,1.58452 -24.16887,2.02652 -32.14286,0.79418 z"
       id="path5933"
       transform="scale(0.26458333)" />
    <path
       style="fill:#550000;fill-opacity:0;stroke-width:0.71428573"
       d="M 401.51058,618.40237 C 387.31726,616.20886 376.08045,612.80553 361.29482,606.22206 330.47557,592.49944 232.48991,547.3488 214.72487,538.68436 190.64058,526.93787 170.94867,512.56846 149.71154,491.24341 130.43567,471.88772 116.32503,452.91582 104.17422,430.018 90.620124,404.47574 84.077313,377.23721 86.40269,356.03295 c 1.123081,-10.24096 2.413316,-14.94776 6.315454,-23.03884 2.789487,-5.784 4.204773,-7.70099 9.777036,-13.2429 7.75927,-7.71702 14.62361,-11.6228 25.28409,-14.38654 17.25595,-4.47363 41.0605,-2.23441 62.40083,5.86985 15.76569,5.98722 80.43757,36.14969 85.53993,39.89516 4.55229,3.34169 10.84131,10.06241 13.9207,14.87628 10.04491,15.70271 7.11079,29.82256 -6.19714,29.82256 -5.93818,0 -4.2421,0.68807 -57.68657,-23.40228 -28.45107,-12.82446 -33.61457,-14.67797 -44.00637,-15.79668 -21.4144,-2.30535 -36.26327,5.98657 -41.41601,23.12753 -0.96771,3.21917 -1.27901,6.59656 -1.25088,13.57143 0.0441,10.93962 1.79951,18.53799 7.02642,30.41467 11.41804,25.94425 34.98369,51.46398 61.11469,66.18235 4.0951,2.30658 25.83263,12.41305 91.42857,42.50805 70.59023,32.38634 72.25663,33.04137 86.19202,33.88051 18.79358,1.13169 32.71497,-7.02854 37.49221,-21.97662 0.99027,-3.09859 1.63109,-7.69994 1.98085,-14.22324 0.36051,-6.72401 0.87273,-10.3234 1.69219,-11.89114 2.60738,-4.98824 12.06989,-6.78224 20.04152,-3.79967 12.37742,4.63098 24.86267,17.37839 29.13208,29.74376 1.48186,4.29187 1.67189,6.0729 1.58719,14.87562 -0.1169,12.1507 -2.04014,20.52113 -7.1274,31.02044 -2.75858,5.69327 -4.28359,7.79825 -9.11825,12.58591 -4.98697,4.9385 -6.96365,6.31598 -14.0176,9.76838 -4.51658,2.21054 -10.30124,4.54633 -12.85481,5.19065 -6.27984,1.58452 -24.16887,2.02652 -32.14286,0.79418 z"
       id="path5935"
       transform="scale(0.26458333)" />
    <use
       id="use5937"
       xlink:href="#path5935"
       x="0"
       y="0"
       width="100%"
       height="100%"
       transform="translate(-18.95206,9.4469578)" />
    <use
       id="use5939"
       xlink:href="#path5935"
       x="0"
       y="0"
       width="100%"
       height="100%"
       transform="translate(-19.040071,7.2217063)" />
    <path
       id="path5633"
       d="m 44.308341,192.38137 c -4.747604,0.21238 -8.454284,-0.1879 -12.304793,-1.32898 -3.661118,-1.0849 -5.785738,-2.20881 -8.424937,-4.45679 -4.293408,-3.65695 -6.341389,-8.52773 -6.044351,-14.37535 0.421461,-8.29699 5.591837,-17.28875 14.404278,-25.0503 1.89973,-1.67319 19.892707,-15.25382 21.126188,-15.9455 5.059651,-2.83726 10.427331,-1.98557 11.059613,1.75484 0.16557,0.97959 -0.0874,2.21338 -0.671252,3.27317 -1.049512,1.90514 -0.902192,1.77912 -11.414552,9.76122 -6.484866,4.92404 -10.075405,7.725 -10.859109,8.47122 -5.151109,4.9047 -7.819868,10.60775 -7.233897,15.45857 0.679729,5.62698 5.599418,9.29614 12.959477,9.66532 1.705179,0.0856 5.607449,-0.33479 7.587599,-0.81727 4.273549,-1.04128 7.98016,-2.68697 11.831955,-5.2533 0.766059,-0.51038 9.92891,-7.38097 20.36193,-15.26795 15.98473,-12.08389 19.16726,-14.53529 20.22888,-15.58135 3.51486,-3.46335 5.56117,-6.69052 6.54799,-10.32655 1.22794,-4.52459 0.36874,-8.11123 -2.62813,-10.9711 -1.51143,-1.44226 -1.86185,-2.57393 -1.3642,-4.40522 0.51007,-1.87711 1.69817,-3.48833 3.58944,-4.86787 1.34769,-0.98306 2.49641,-1.58498 3.89692,-2.04213 2.88213,-0.94065 5.54918,-0.72531 7.24602,0.58498 3.73307,2.88257 6.25131,8.42816 6.17051,13.58836 -0.0495,3.17257 -1.06653,7.46413 -2.51724,10.62364 -2.48881,5.42034 -6.79591,10.91892 -12.20723,15.58399 -2.04819,1.76573 -40.385962,30.67658 -42.348618,31.93546 -6.584193,4.22314 -13.141042,7.04814 -20.220756,8.71213 -1.992521,0.46831 -7.003328,1.19769 -8.771735,1.27676 z M 86.84532,142.57199 c -1.575228,-0.14565 -2.333918,-0.47696 -3.622467,-1.58244 -3.428939,-2.94177 -5.495301,-7.41363 -5.666502,-12.26311 -0.0901,-2.553 0.084,-3.83669 0.946681,-6.97852 0.584511,-2.12876 0.959711,-3.24225 1.460022,-4.3329 2.52314,-5.50016 6.359378,-10.50915 11.629664,-15.18475 1.425386,-1.26456 35.938842,-27.503714 40.163132,-30.534412 7.53727,-5.407472 14.53957,-8.652218 23.13415,-10.719892 2.58053,-0.620841 7.9424,-1.299445 10.37492,-1.31308 4.08115,-0.02161 7.43215,0.413496 10.69411,1.392702 3.39872,1.020285 5.60749,2.164086 8.08513,4.186898 4.80491,3.922838 6.84989,9.275596 6.20287,16.236197 -0.14527,1.561625 -1.35813,5.829818 -2.17982,7.670467 -2.41653,5.413069 -6.35443,10.60417 -11.65238,15.3605 -2.05158,1.84181 -20.12896,15.54325 -21.59006,16.36381 -5.0436,2.83248 -10.42897,1.97848 -11.05991,-1.75385 -0.1656,-0.9795 0.0875,-2.21337 0.67112,-3.27288 1.06572,-1.9346 0.86688,-1.76446 11.40567,-9.76035 10.25163,-7.778131 11.12865,-8.505283 13.18993,-10.935582 8.53959,-10.067962 5.77333,-20.714969 -5.83111,-22.443223 -2.16859,-0.322948 -3.42595,-0.305994 -6.54883,0.08844 -3.21277,0.405834 -4.23263,0.641912 -6.89861,1.59685 -2.90583,1.04085 -5.40695,2.31398 -8.18853,4.168147 -0.76612,0.510646 -9.84793,7.316877 -20.18175,15.124911 -13.39157,10.118527 -19.14863,14.533987 -20.04117,15.370917 -2.474576,2.32038 -4.60286,5.12764 -5.859125,7.72834 -0.753145,1.55923 -1.510495,4.32117 -1.585885,5.78377 -0.17356,3.36771 0.81947,5.88004 3.25746,8.2412 1.445174,1.39956 1.760907,2.47439 1.264084,4.30264 -0.65761,2.42002 -2.551699,4.51064 -5.51304,6.08508 -1.810212,0.96246 -4.330226,1.53385 -6.059774,1.37406 z"
       style="opacity:1;fill:url(#linearGradient6363);fill-opacity:1;stroke:#000000;stroke-width:0;stroke-linecap:round;stroke-linejoin:round;stroke-miterlimit:4;stroke-dasharray:none;stroke-dashoffset:0;stroke-opacity:1;paint-order:stroke fill markers" />
  </g>
</svg>
